# xmcd
#
# Track frame offsets: 
#        150
#        14172
#        28177
#        41452
#        57402
#        70147
#        84245
#        97452
#        111062
#        123687
#        136907
#        150592
#
# Disc length: 2165 seconds
#
# Revision: 0
# Processed by: cddbd v1.5.1PL2 Copyright (c) Steve Scherf et al.
# Submitted via: ExactAudioCopy v0.95b4
#
DISCID=a708730c
DTITLE=Various Artist - The Best of Country
DYEAR=1992
DGENRE=Country
TTITLE0=Johnny Cash - Orange Blossom Special
TTITLE1=Johnny Ray - Wagon Wheels
TTITLE2=Lyn Anderson - Rose Garden
TTITLE3=Marty Robbins - My Woman, My Woman, My Wife
TTITLE4=George Jones - She Thinks I still Care
TTITLE5=Merle Haggard - Natural High
TTITLE6=Charlie Rich - Behind Closed Doors
TTITLE7=Jimmy Dean - Big Bad John
TTITLE8=Mick Gilley - Room Full Of Roses
TTITLE9=Janie Frickie - He's A Heartache
TTITLE10=Willie Nelson - My heroes Have Aleways Been Cowboys
TTITLE11=Johnny Paychech - Take This Job And Shove It
EXTD=
EXTT0=
EXTT1=
EXTT2=
EXTT3=
EXTT4=
EXTT5=
EXTT6=
EXTT7=
EXTT8=
EXTT9=
EXTT10=
EXTT11=
PLAYORDER=
